<?xml version="1.0" standalone="no"?>
<!DOCTYPE svg PUBLIC "-//W3C//DTD SVG 20010904//EN"
 "http://www.w3.org/TR/2001/REC-SVG-20010904/DTD/svg10.dtd">
<svg version="1.0" xmlns="http://www.w3.org/2000/svg"
 width="231.000000pt" height="149.000000pt" viewBox="0 0 231.000000 149.000000"
 preserveAspectRatio="xMidYMid meet">
<metadata>
Created by potrace 1.16, written by Peter Selinger 2001-2019
</metadata>
<g transform="translate(0.000000,149.000000) scale(0.100000,-0.100000)"
fill="#000000" stroke="none">
<path d="M1114 1357 c-33 -49 -36 -92 -10 -190 l23 -89 -24 -11 c-13 -5 -26
-8 -29 -5 -3 3 -5 48 -5 101 -1 75 -4 101 -20 126 -11 19 -24 29 -31 25 -7 -4
-8 -3 -4 4 4 6 -5 19 -20 28 -30 20 -37 14 -54 -49 -15 -50 -4 -97 42 -189 21
-42 38 -83 38 -91 0 -12 -39 -56 -41 -46 -7 39 -46 181 -59 214 -18 46 -51 87
-67 81 -8 -3 -11 -1 -8 4 3 6 -1 10 -10 10 -9 0 -14 4 -10 9 3 6 -4 9 -15 8
-21 -1 -27 -32 -22 -114 2 -40 -3 -40 -59 -8 -24 14 -54 25 -66 25 -19 0 -23
-5 -22 -32 1 -65 64 -173 107 -184 12 -3 22 -9 22 -13 0 -3 34 -35 75 -71 51
-44 75 -72 75 -87 0 -39 -17 -34 -63 17 -25 28 -47 47 -49 43 -3 -5 -4 -3 -3
2 4 16 -33 57 -45 50 -5 -3 -8 0 -5 7 3 7 -11 23 -30 36 -19 12 -35 29 -35 37
0 18 -36 38 -52 29 -6 -4 -8 -3 -5 3 9 14 -45 33 -89 33 -39 0 -41 -9 -15 -65
21 -46 55 -80 70 -70 13 7 14 -5 3 -22 -6 -10 -17 -10 -43 -2 -47 14 -108 18
-115 7 -3 -4 -10 -6 -15 -3 -5 4 -9 0 -9 -8 0 -21 45 -82 58 -80 7 2 11 -2 9
-8 -1 -6 4 -14 12 -17 9 -3 11 0 6 8 -5 9 -4 11 4 6 6 -4 9 -12 6 -17 -4 -5
-1 -9 5 -9 7 0 10 -5 8 -11 -2 -7 -29 -13 -62 -14 -31 -2 -71 -9 -87 -15 l-30
-13 37 -38 c23 -23 51 -41 71 -45 23 -4 33 -12 33 -25 0 -15 -7 -19 -32 -19
-37 0 -121 -46 -115 -63 6 -19 77 -55 121 -61 26 -4 84 3 160 19 66 14 149 28
185 31 36 4 69 12 73 18 6 8 8 8 8 0 0 -15 55 -38 69 -29 6 3 11 24 11 46 0
59 22 100 90 173 81 88 99 136 49 136 -23 0 -25 22 -4 40 8 7 15 16 15 21 0 5
-7 6 -15 3 -22 -9 -19 25 5 46 12 11 30 15 46 12 21 -4 24 -9 20 -28 -4 -14
-2 -24 4 -24 6 0 15 -11 20 -24 7 -19 2 -48 -20 -118 -55 -175 -34 -232 100
-272 66 -20 106 -20 113 -2 7 18 42 14 249 -25 151 -30 159 -30 210 -15 29 9
67 27 83 40 l30 25 -32 7 c-18 3 -31 10 -28 14 6 10 -40 30 -69 30 -13 0 -29
7 -36 15 -10 12 -7 15 16 21 60 15 100 48 95 77 -1 5 3 6 8 3 5 -4 12 -2 15 3
15 24 -94 43 -169 29 -16 -3 -22 -3 -12 -1 9 2 15 8 12 13 -3 5 6 17 20 26 13
9 22 21 18 27 -3 5 -2 7 4 4 18 -11 81 72 66 87 -8 8 -111 8 -140 0 -13 -4
-20 -11 -16 -17 3 -6 1 -7 -5 -3 -18 11 -14 31 9 52 23 20 58 89 59 113 0 11
-11 12 -52 8 -54 -7 -148 -60 -148 -84 0 -7 -6 -13 -14 -13 -7 0 -21 -11 -29
-24 -9 -13 -28 -36 -42 -52 -14 -15 -25 -33 -25 -41 0 -8 -4 -12 -8 -9 -5 3
-24 -10 -42 -29 -35 -37 -50 -37 -49 -2 0 14 28 46 79 92 43 38 76 73 74 77
-3 4 1 5 9 2 18 -6 100 84 93 103 -3 7 -1 13 3 13 10 0 31 55 31 81 0 30 -51
24 -99 -12 -24 -17 -45 -28 -48 -25 -3 3 -7 37 -8 76 -1 39 -5 73 -8 77 -3 3
-26 -6 -50 -20 -34 -20 -49 -38 -66 -78 -12 -28 -20 -58 -17 -66 3 -8 -1 -21
-9 -29 -17 -17 -21 -39 -5 -29 6 3 10 -1 10 -9 0 -9 -6 -16 -14 -16 -13 0 -30
-55 -21 -69 9 -16 -26 -7 -41 11 -16 17 -16 21 2 59 10 23 17 50 17 60 -1 11
2 17 7 14 11 -7 22 24 13 37 -4 7 -1 8 6 3 9 -5 12 -2 9 11 -2 11 3 24 10 30
28 21 3 154 -29 154 -17 0 -81 -68 -75 -79 4 -5 2 -12 -4 -16 -6 -3 -10 -49
-10 -106 0 -88 -2 -99 -17 -99 -42 1 -47 14 -34 82 7 34 15 70 18 78 8 22 3
92 -9 113 -12 23 -41 57 -48 57 -3 0 -15 -15 -26 -33z m-343 -647 c52 -16 100
-30 107 -30 8 0 12 -17 12 -53 l0 -53 -87 8 c-49 4 -94 6 -100 3 -7 -2 -13 0
-13 5 0 5 -15 10 -32 12 -18 2 -31 8 -28 13 6 12 94 13 178 2 70 -10 76 -8 66
17 -4 11 -14 16 -25 13 -11 -3 -21 -2 -24 3 -3 4 -17 11 -32 15 -44 10 -143
57 -143 66 0 15 23 11 121 -21z"/>
</g>
</svg>
